<svg width="35" height="34" viewBox="0 0 35 34" fill="none" xmlns="http://www.w3.org/2000/svg">
<path d="M28.3497 18.4165C28.0289 18.4165 27.6935 18.3174 27.3726 18.2465C26.7229 18.1074 26.0844 17.9228 25.4622 17.694C24.7857 17.4549 24.042 17.4673 23.3743 17.7289C22.7067 17.9904 22.1621 18.4826 21.8456 19.1107L21.5247 19.7482C20.1043 18.9806 18.7991 18.0273 17.6456 16.9149C16.5004 15.7943 15.519 14.5264 14.7289 13.1465L15.3414 12.7499C15.988 12.4423 16.4946 11.9134 16.7638 11.2647C17.0331 10.6161 17.0458 9.89373 16.7997 9.23652C16.5682 8.63079 16.3782 8.01082 16.231 7.38069C16.1581 7.06902 16.0997 6.74319 16.056 6.41735C15.8789 5.41948 15.3408 4.51582 14.5388 3.86911C13.7367 3.2224 12.7232 2.87513 11.681 2.88985H7.30597C6.67747 2.88412 6.05508 3.01001 5.48117 3.25894C4.90726 3.50787 4.3953 3.87401 3.98014 4.33242C3.56498 4.79083 3.25637 5.33076 3.07533 5.91545C2.89428 6.50014 2.84504 7.11585 2.93097 7.72069C3.70788 13.6556 6.4981 19.17 10.8609 23.3928C15.2237 27.6155 20.9103 30.3059 27.0226 31.039H27.5768C28.6522 31.0406 29.6905 30.6573 30.4935 29.9624C30.9548 29.5615 31.3234 29.0701 31.5748 28.5206C31.8262 27.9712 31.9547 27.3761 31.9518 26.7749V22.5249C31.9339 21.5408 31.5651 20.5933 30.9081 19.844C30.2512 19.0948 29.347 18.5902 28.3497 18.4165ZM29.0789 26.9165C29.0786 27.1177 29.0343 27.3165 28.9488 27.4997C28.8633 27.6829 28.7386 27.8463 28.5831 27.979C28.4201 28.1157 28.2296 28.2178 28.0236 28.2788C27.8177 28.3398 27.6009 28.3583 27.3872 28.3332C21.9256 27.6529 16.8526 25.2257 12.9683 21.4344C9.08396 17.6432 6.60948 12.7036 5.93514 7.39485C5.91193 7.18734 5.93227 6.97741 5.99493 6.77774C6.05759 6.57808 6.16128 6.39283 6.29972 6.23319C6.43638 6.08207 6.6046 5.96096 6.79319 5.87791C6.98178 5.79486 7.18641 5.75178 7.39347 5.75152H11.7685C12.1076 5.74419 12.4388 5.85193 12.7049 6.0562C12.9711 6.26048 13.1557 6.54849 13.2268 6.87069C13.2851 7.25791 13.3581 7.64041 13.4456 8.01819C13.614 8.76497 13.8382 9.49886 14.1164 10.214L12.0747 11.1349C11.9002 11.2127 11.7431 11.3232 11.6127 11.4601C11.4822 11.597 11.3808 11.7576 11.3144 11.9327C11.2481 12.1078 11.2179 12.2939 11.2257 12.4803C11.2336 12.6667 11.2793 12.8498 11.3601 13.019C13.459 17.3863 17.0728 20.8968 21.5685 22.9357C21.9235 23.0774 22.3218 23.0774 22.6768 22.9357C22.8587 22.8725 23.0258 22.7748 23.1685 22.6484C23.3112 22.5219 23.4266 22.3692 23.5081 22.199L24.4122 20.2157C25.1661 20.4776 25.9356 20.6952 26.7164 20.8674C27.1053 20.9524 27.499 21.0232 27.8976 21.0799C28.2293 21.149 28.5258 21.3282 28.7361 21.5868C28.9464 21.8454 29.0573 22.1671 29.0497 22.4965L29.0789 26.9165Z" fill="#A098AE"/>
</svg>
